<svg xmlns="http://www.w3.org/2000/svg" width="72" height="72"><g fill="none" fill-rule="evenodd"><circle cx="44" cy="44" r="28" fill="#2C6269"/><path fill="#79C8C7" fill-rule="nonzero" d="M31.719 0a2.19 2.19 0 012.187 2.188v3.23a23.117 23.117 0 015.886 2.436l2.284-2.283a2.19 2.19 0 013.093 0l5.26 5.26a2.19 2.19 0 010 3.093l-2.283 2.284a23.117 23.117 0 012.436 5.886h3.23A2.19 2.19 0 0156 24.28v7.438a2.19 2.19 0 01-2.188 2.187h-3.237a23.122 23.122 0 01-2.44 5.877l2.293 2.293a2.19 2.19 0 010 3.093l-5.259 5.26a2.19 2.19 0 01-3.093 0l-2.301-2.301a23.12 23.12 0 01-5.869 2.426v3.258A2.19 2.19 0 0131.72 56H24.28a2.19 2.19 0 01-2.187-2.188v-3.265a23.107 23.107 0 01-5.859-2.43l-2.31 2.312a2.19 2.19 0 01-3.094 0l-5.26-5.26a2.19 2.19 0 010-3.093l2.311-2.311a23.107 23.107 0 01-2.43-5.859H2.189A2.19 2.19 0 010 31.72V24.28a2.19 2.19 0 012.188-2.187h3.258a23.106 23.106 0 012.426-5.869l-2.3-2.301a2.19 2.19 0 010-3.093l5.259-5.26a2.19 2.19 0 013.093 0l2.293 2.294a23.106 23.106 0 015.877-2.44V2.188A2.19 2.19 0 0124.28 0h7.438zm0 2.188H24.28v4.098c0 .513-.356.957-.857 1.068a20.954 20.954 0 00-6.78 2.815c-.433.277-1 .216-1.363-.148l-2.904-2.903-5.259 5.26 2.91 2.91c.363.362.425.928.149 1.36a20.959 20.959 0 00-2.801 6.774c-.11.502-.555.86-1.068.86h-4.12v7.437h4.126c.513 0 .957.357 1.068.857a20.948 20.948 0 002.805 6.764c.276.433.215 1-.148 1.362l-2.92 2.92 5.258 5.26 2.92-2.92a1.094 1.094 0 011.363-.15 20.943 20.943 0 006.764 2.806c.5.111.857.555.857 1.068v4.127h7.438v-4.12c0-.514.357-.959.859-1.069 2.41-.53 4.69-1.473 6.774-2.801a1.094 1.094 0 011.361.15l2.91 2.909 5.259-5.26-2.903-2.902a1.094 1.094 0 01-.148-1.363 20.957 20.957 0 002.815-6.78c.11-.502.555-.858 1.068-.858h4.099V24.28H49.72c-.514 0-.958-.357-1.068-.859a20.944 20.944 0 00-2.811-6.79 1.094 1.094 0 01.148-1.362l2.893-2.893-5.26-5.259-2.892 2.893c-.363.363-.929.424-1.362.148a20.954 20.954 0 00-6.79-2.81 1.093 1.093 0 01-.86-1.069V2.187zm4.087 11.877a1.094 1.094 0 11-1.07 1.908c-5.356-3.004-12.133-2.065-16.48 2.282-5.374 5.373-5.374 14.117 0 19.49A13.742 13.742 0 0028 41.775c3.53 0 7.058-1.343 9.745-4.03a13.765 13.765 0 002.588-15.903 1.094 1.094 0 111.957-.978 15.95 15.95 0 01-2.998 18.428A15.92 15.92 0 0128 43.962a15.92 15.92 0 01-11.292-4.67c-6.226-6.227-6.226-16.357 0-22.584a15.822 15.822 0 019.209-4.54 16.079 16.079 0 019.889 1.897zm-2.495 6.198l3.923 3.923c.427.427.427 1.12 0 1.547L27.23 35.737a1.095 1.095 0 01-1.547 0l-6.917-6.917a1.093 1.093 0 010-1.547l3.923-3.923a1.093 1.093 0 011.547 0l2.22 2.22 5.308-5.307a1.093 1.093 0 011.547 0zm-.774 2.32l-5.307 5.308a1.095 1.095 0 01-1.547 0l-2.22-2.22-2.377 2.376 5.37 5.37 8.458-8.457-2.377-2.377zm6.22-5.957c.288 0 .57.117.774.32.203.204.32.486.32.774a1.1 1.1 0 01-.32.773 1.1 1.1 0 01-.774.32 1.1 1.1 0 01-.774-.32 1.099 1.099 0 010-1.546c.203-.204.485-.32.774-.32z"/></g></svg>