<svg xmlns="http://www.w3.org/2000/svg" width="72" height="72"><g fill="none" fill-rule="evenodd"><circle cx="44" cy="44" r="28" fill="#2C6269"/><path fill="#79C8C7" fill-rule="nonzero" d="M52.5 18.667c.644 0 1.167.522 1.167 1.166l-.001 33.833h1.167c.601 0 1.097.456 1.16 1.04l.007.127c0 .644-.523 1.167-1.167 1.167l-2.315-.001L52.5 56h-7.018l-6.964-.001L38.5 56h-7.018l-6.964-.001L24.5 56H1.167a1.167 1.167 0 010-2.333l1.166-.001V40.833c0-.6.456-1.096 1.04-1.16l.127-.006h7c.644 0 1.167.522 1.167 1.166l-.001 12.833h4.667v-24.5c0-.6.456-1.096 1.04-1.16L17.5 28h7c.644 0 1.167.523 1.167 1.167l-.001 24.499h4.667V33.833c0-.6.456-1.096 1.04-1.16l.127-.006h7c.644 0 1.167.522 1.167 1.166l-.001 19.833h4.667V19.833c0-.6.456-1.096 1.04-1.16l.127-.006zM9.333 42H4.667v11.667h4.666V42zm14-11.667h-4.666v23.334h4.666V30.333zm14 4.667h-4.666v18.667h4.666V35zm14-14h-4.666v32.667h4.666V21zM49 0a4.671 4.671 0 014.667 4.667A4.671 4.671 0 0149 9.333a4.64 4.64 0 01-2.37-.647l-7.61 7.612a4.64 4.64 0 01.647 2.369A4.671 4.671 0 0135 23.333a4.671 4.671 0 01-4.603-5.44l-5.372-1.532A4.669 4.669 0 0121 18.667a4.643 4.643 0 01-2.802-.937l-7.117 5.674c.373.67.586 1.442.586 2.263A4.671 4.671 0 017 30.333a4.671 4.671 0 01-4.667-4.666A4.671 4.671 0 017 21c.905 0 1.75.259 2.466.706l7.274-5.8A4.671 4.671 0 0121 9.333a4.671 4.671 0 014.665 4.781l5.7 1.627a4.66 4.66 0 016.005-1.095l7.61-7.611a4.64 4.64 0 01-.647-2.37A4.671 4.671 0 0149 0zM7 23.333a2.336 2.336 0 00-2.333 2.334A2.336 2.336 0 007 28a2.336 2.336 0 002.333-2.333c0-.634-.254-1.21-.666-1.632a.99.99 0 01-.106-.114l.074.082A2.325 2.325 0 007 23.333zm28-7a2.336 2.336 0 00-2.333 2.334A2.336 2.336 0 0035 21a2.336 2.336 0 002.333-2.333A2.336 2.336 0 0035 16.333zm-14-4.666A2.336 2.336 0 0018.667 14c0 .535.18 1.028.485 1.423l.028.03.015.02a2.317 2.317 0 001.805.86A2.336 2.336 0 0023.333 14 2.336 2.336 0 0021 11.667zm28-9.334a2.336 2.336 0 00-2.333 2.334c0 .631.252 1.205.661 1.626l.025.021.021.022c.42.411.993.664 1.626.664a2.336 2.336 0 002.333-2.333A2.336 2.336 0 0049 2.333z"/></g></svg>