<svg xmlns="http://www.w3.org/2000/svg" width="65" height="72"><g fill="none" fill-rule="evenodd" transform="translate(-7)"><circle cx="44" cy="44" r="28" fill="#2C6269"/><path fill="#79C8C7" fill-rule="nonzero" d="M28.496 0c5.66 0 10.267 4.606 10.267 10.267v4.666a3.737 3.737 0 013.733 3.734 3.737 3.737 0 01-3.733 3.733h-.213a11.184 11.184 0 01-5.387 8.7v1.566h2.949a4.523 4.523 0 014.512 4.306l.005.212c0 .07 0 .14-.003.21l.122.007c4.216.561 7.348 4.142 7.348 8.332V56h-1.867V45.733a6.553 6.553 0 00-5.668-6.475l-.405-.025a4.573 4.573 0 01-.28.484l-4.847 7.233V56h-1.867l.001-13.044a9.388 9.388 0 01-5.6 1.844 9.39 9.39 0 01-5.6-1.843V56h-1.867v-9.05l-4.845-7.23a4.573 4.573 0 01-.282-.487l-.467.03c-3.17.426-5.606 3.21-5.606 6.47V56H7.029V45.733c0-4.19 3.132-7.77 7.288-8.326l.182-.013-.004-.22a4.52 4.52 0 014.305-4.502l.212-.005 2.95-.001v-1.534a10.995 10.995 0 01-5.187-7.266l-.055-.289a10.974 10.974 0 01-.13-.987l-.015-.19h-.212a3.738 3.738 0 01-3.729-3.535l-.005-.198a3.737 3.737 0 013.734-3.734l-.001-4.364A6.543 6.543 0 0112.633 4.9l-.004-.234c0-.516.418-.934.934-.934h.5a3.706 3.706 0 01-.5-1.866V.933c0-.515.418-.933.933-.933zM18.229 46.667c.515 0 .934.417.934.933v5.6a.933.933 0 11-1.867 0v-5.6c0-.516.418-.933.933-.933zm18.667 0c.516 0 .933.417.933.933v5.6a.932.932 0 11-1.867 0v-5.6c0-.516.418-.933.934-.933zm-.784-12.134h-2.95v1.139a.935.935 0 00.666.908l.11.025h.158c.516 0 .933.418.933.934v6.057l3.294-4.915c.256-.385.405-.827.434-1.289l.006-.199c0-1.47-1.19-2.66-2.651-2.66zm-14.15 0h-2.949a2.653 2.653 0 00-2.65 2.65 2.638 2.638 0 00.441 1.5l3.291 4.912v-6.056c0-.48.361-.873.825-.927l.11-.007h.158a.933.933 0 00.774-.926v-1.146zM31.296 32c-.572.213-1.168.38-1.783.5a10.97 10.97 0 01-5.684-.486v3.658a2.797 2.797 0 01-1.867 2.654v2.123a7.53 7.53 0 005.6 2.484c2.147 0 4.17-.901 5.6-2.485v-2.123a2.798 2.798 0 01-1.866-2.661zm1.933-20.8H21.895c-.413 2.84-2.638 4.552-3.666 5.203V19.6l.221 2.84c.023.267.06.54.107.81.883 4.971 5.646 8.297 10.616 7.415a9.328 9.328 0 007.529-8.593l.197-2.545v-3.122c-1.027-.65-3.255-2.363-3.67-5.205zm-3.526 11.473l1.32 1.32a7.27 7.27 0 01-5.168 2.14h-.16v-1.866h.16a5.414 5.414 0 003.848-1.594zm-3.008-6.22l1.734.694-1.355 3.386h1.422V22.4h-2.8a.935.935 0 01-.867-1.28l1.866-4.666zm12.068.347v2.8l-.072.933h.072c.98 0 1.786-.759 1.86-1.72l.006-.146c0-1.03-.837-1.867-1.866-1.867zm-22.399 0a1.869 1.869 0 00-1.868 1.867c0 1.03.837 1.866 1.867 1.866h.068l-.066-.861V16.8zm5.598-.933a1.867 1.867 0 110 3.733 1.867 1.867 0 010-3.733zm11.2 0a1.867 1.867 0 110 3.733 1.867 1.867 0 010-3.733zm3.733-4.668l-1.766.002c.272 1.256 1.054 2.215 1.768 2.86l-.002-2.862zm-18.666-.066v2.926c.714-.644 1.495-1.603 1.767-2.858l-.833-.001c-.317 0-.629-.023-.934-.067zm10.267-9.266H15.429c0 1.03.837 1.866 1.867 1.866a.934.934 0 010 1.867H14.59a4.675 4.675 0 004.573 3.733h17.68c-.465-4.194-4.03-7.466-8.347-7.466z"/><path d="M0 0h56v56H0z"/></g></svg>