<?xml version="1.0" encoding="UTF-8"?>
<svg width="16px" height="16px" viewBox="0 0 16 16" version="1.1" xmlns="http://www.w3.org/2000/svg" xmlns:xlink="http://www.w3.org/1999/xlink">
    <!-- Generator: Sketch 57.1 (83088) - https://sketch.com -->
    <title>loading_spinner</title>
    <desc>Created with Sketch.</desc>
    <g id="Symbols" stroke="none" stroke-width="1" fill="none" fill-rule="evenodd">
        <g id="Atoms/Buttons/Web/Secondary-Outline/Medium-Pressed" transform="translate(-181.000000, -13.000000)" fill="#FFFFFF">
            <g id="Button">
                <path d="M191.00417,26.9690221 C192.066662,26.6133912 192.607845,28.2296418 191.544792,28.5853367 C190.576667,28.9103277 189.547998,29.0459593 188.528481,28.9859595 C184.119695,28.7253363 180.754106,24.9371725 181.014105,20.5285464 C181.274728,16.1197603 185.062892,12.7535309 189.471518,13.0141701 C193.880305,13.2747932 197.245894,17.0629573 196.985895,21.4715834 C196.965269,21.8278383 196.918396,22.2022051 196.84902,22.552204 C196.634013,23.6546966 194.957826,23.3278336 195.172705,22.2253251 C195.22958,21.936574 195.26583,21.6653268 195.282705,21.3715837 C195.487696,17.9059947 192.837113,14.9216841 189.371524,14.7172047 C185.905934,14.5122134 182.921624,17.162797 182.717145,20.6283861 C182.512153,24.0939752 185.162737,27.0782858 188.628326,27.2827651 C189.437075,27.3302658 190.235841,27.2271397 191.003998,26.9690221 L191.00417,26.9690221 Z" id="loading_spinner"></path>
            </g>
        </g>
    </g>
</svg>