<svg fill="none" viewBox="0 0 64 64" >
    <g clipPath="url(#prefix__clip0)">
      <path
        d="M43.573.64l-.32 7.227a.48.48 0 00.774.4l2.826-2.134L49.253 8A.48.48 0 0050 7.627l-.267-7.36L53.28 0a3.2 3.2 0 013.413 3.2v57.6a3.2 3.2 0 01-3.36 3.2L10.4 62.08a3.2 3.2 0 01-3.067-3.093l-2-52.8A3.2 3.2 0 018.347 2.8l35.2-2.213.026.053zM35.387 24.8c0 1.253 8.426.64 9.573-.213 0-8.534-4.587-13.04-12.96-13.04-8.4 0-13.067 4.586-13.067 11.44 0 11.866 16 12.08 16 18.56 0 1.866-.853 2.933-2.8 2.933-2.56 0-3.6-1.307-3.466-5.76 0-.96-9.734-1.28-10.054 0-.72 10.747 5.947 13.867 13.6 13.867 7.44 0 13.254-3.974 13.254-11.147 0-12.72-16.267-12.373-16.267-18.667 0-2.586 1.92-2.933 3.013-2.933 1.2 0 3.334.187 3.174 4.987V24.8z"
        fill="#FF4785"
      />
    </g>
    <defs>
      <clipPath id="prefix__clip0">
        <path fill="#fff" d="M0 0h64v64H0z" />
      </clipPath>
    </defs>
  </svg>
